<svg width="30" height="30" viewBox="0 0 30 30" fill="none" xmlns="http://www.w3.org/2000/svg">
<rect x="4" y="4.32422" width="22" height="21.6131" fill="white"/>
<path d="M17.38 15.4054L13.8571 17.1519C13.7193 17.2272 13.25 17.1271 13.25 16.9695V13.383C13.25 13.2236 13.7231 13.1236 13.8612 13.2031L17.2333 15.0423C17.3748 15.1228 17.5228 15.3274 17.38 15.4054ZM22 13.2983C22 11.5979 20.6243 10.2188 18.9276 10.2188H11.0721C9.37541 10.2188 8 11.5979 8 13.2983V16.9627C8 18.6639 9.37541 20.043 11.0721 20.043H18.9276C20.6243 20.043 22 18.6639 22 16.9627V13.2983Z" fill="#764F96"/>
</svg>
