<svg width="30" height="30" viewBox="0 0 30 30" fill="none" xmlns="http://www.w3.org/2000/svg">
<rect x="4" y="4.32422" width="22" height="21.6131" fill="white"/>
<path d="M14.9973 9.23957C12.5397 9.23957 10.206 9.02497 9.31457 11.2707C8.94637 12.1982 8.99984 13.4027 8.99984 15.1275C8.99984 16.641 8.95043 18.0635 9.31457 18.9837C10.2039 21.2308 12.5566 21.0155 14.9959 21.0155C17.3493 21.0155 19.7757 21.256 20.678 18.9837C21.0468 18.0469 20.9927 16.8603 20.9927 15.1275C20.9927 12.8274 21.122 11.3424 19.9856 10.2275C18.8349 9.09805 17.2789 9.23957 14.9946 9.23957H14.9973ZM14.4599 10.3006C19.5862 10.2927 20.2387 9.73322 19.8786 17.5048C19.7507 20.2534 17.6187 19.9518 14.998 19.9518C10.2195 19.9518 10.0821 19.8176 10.0821 15.1249C10.0821 10.3777 10.4611 10.3033 14.4599 10.2993V10.3006ZM18.1987 11.278C17.8014 11.278 17.4792 11.5942 17.4792 11.9842C17.4792 12.3742 17.8014 12.6905 18.1987 12.6905C18.596 12.6905 18.9182 12.3742 18.9182 11.9842C18.9182 11.5942 18.596 11.278 18.1987 11.278ZM14.9973 12.1038C13.2964 12.1038 11.9177 13.4579 11.9177 15.1275C11.9177 16.7972 13.2964 18.1506 14.9973 18.1506C16.6982 18.1506 18.0762 16.7972 18.0762 15.1275C18.0762 13.4579 16.6982 12.1038 14.9973 12.1038ZM14.9973 13.1649C17.6403 13.1649 17.6437 17.0902 14.9973 17.0902C12.3549 17.0902 12.3509 13.1649 14.9973 13.1649Z" fill="#764F96"/>
</svg>
