<svg width="22" height="22" viewBox="0 0 22 22" fill="none" xmlns="http://www.w3.org/2000/svg">
<rect width="22" height="22" fill="#764F96"/>
<path d="M10.9973 5.00343C8.53975 5.00343 6.20602 4.78498 5.31463 7.07088C4.94643 8.01499 4.9999 9.24112 4.9999 10.9968C4.9999 12.5374 4.95049 13.9854 5.31463 14.922C6.20399 17.2093 8.55667 16.9902 10.996 16.9902C13.3493 16.9902 15.7758 17.235 16.678 14.922C17.0469 13.9685 16.9928 12.7606 16.9928 10.9968C16.9928 8.65545 17.122 7.14392 15.9856 6.00908C14.835 4.85937 13.279 5.00343 10.9946 5.00343H10.9973ZM10.4599 6.08348C15.5863 6.07536 16.2388 5.50592 15.8787 13.4166C15.7508 16.2145 13.6187 15.9074 10.998 15.9074C6.21956 15.9074 6.08216 15.7708 6.08216 10.9941C6.08216 6.16193 6.46119 6.08618 10.4599 6.08213V6.08348ZM14.1988 7.07832C13.8015 7.07832 13.4793 7.40023 13.4793 7.79722C13.4793 8.19421 13.8015 8.51613 14.1988 8.51613C14.5961 8.51613 14.9183 8.19421 14.9183 7.79722C14.9183 7.40023 14.5961 7.07832 14.1988 7.07832ZM10.9973 7.91896C9.29645 7.91896 7.91774 9.29726 7.91774 10.9968C7.91774 12.6963 9.29645 14.074 10.9973 14.074C12.6982 14.074 14.0763 12.6963 14.0763 10.9968C14.0763 9.29726 12.6982 7.91896 10.9973 7.91896ZM10.9973 8.99901C13.6404 8.99901 13.6438 12.9946 10.9973 12.9946C8.35497 12.9946 8.35091 8.99901 10.9973 8.99901Z" fill="white"/>
</svg>
