<svg width="80" height="80" viewBox="0 0 80 80" fill="none" xmlns="http://www.w3.org/2000/svg">
<path d="M65.9852 70.9818C66.2662 71.042 66.5572 70.9517 66.7478 70.731C66.9385 70.5103 67.0087 70.2194 66.9184 69.9485L65.052 63.9798C64.9918 63.7691 64.8413 63.5986 64.6506 63.4983C64.46 63.398 64.2392 63.3779 64.0385 63.4481C63.6171 63.5785 63.3763 64.04 63.5067 64.4613L64.9316 69.0056L64.7409 68.9354C58.058 66.3573 58.941 57.69 59.0615 56.707C59.0916 56.4863 59.1116 56.2656 59.1217 56.0549V55.9847L59.1919 55.9646C59.232 55.9546 60.5365 55.5433 60.6168 55.5232L60.7171 55.4932L62.2524 60.4086C62.3126 60.6192 62.4631 60.7898 62.6538 60.8801C62.8444 60.9804 63.0652 61.0004 63.2659 60.9302C63.6873 60.7998 63.9281 60.3384 63.7977 59.917L62.1019 54.49L62.132 54.4499C62.5133 53.868 62.6036 53.2361 62.3929 52.564L62.3427 52.4035L62.5133 52.4335C63.8679 52.7044 65.2126 52.243 66.1157 51.2097C66.9585 50.2367 67.2194 48.9627 66.8181 47.789C66.0554 45.582 65.1122 42.9237 64.1991 40.3657C63.2558 37.6973 62.2725 34.9487 61.5299 32.7819C60.9178 30.9963 59.8542 29.3611 58.4694 28.0771L55.2885 25.1178C55.128 24.9673 54.9172 24.8871 54.7065 24.8971C54.4858 24.9071 54.2851 24.9974 54.1446 25.1579C53.8436 25.489 53.8536 26.0006 54.1847 26.3015L57.3656 29.2708C58.5597 30.3743 59.4628 31.7787 59.9947 33.3135C60.7372 35.4803 61.7206 38.229 62.6638 40.8973C63.5769 43.4554 64.5202 46.1137 65.2828 48.3206C65.4534 48.8222 65.3932 49.3539 65.1122 49.8354C64.6908 50.5476 63.9181 50.9188 63.0652 50.8686C62.2624 50.8084 61.5801 50.3671 61.3192 49.7451L56.9141 38.5801C56.2317 36.8948 55.0477 35.5004 53.4923 34.5474C52.519 33.9455 52.519 33.9455 46.2676 31.9994C44.7122 31.5179 42.7756 30.916 40.3372 30.1536C39.8255 29.9931 39.3037 30.2339 39.0829 30.7154C38.8622 31.2069 39.0327 31.7586 39.4943 32.0295C43.8292 34.6477 48.5554 38.2992 52.7799 42.3218C53.4121 42.9237 53.5526 43.8667 53.1411 44.629L52.8802 45.0905C52.3986 45.9632 51.2948 46.3244 50.4017 45.903C49.6492 45.5519 46.2575 43.977 43.4981 42.693L39.9057 41.0177C39.8756 41.0077 39.8455 40.9876 39.8154 40.9776L30.2325 37.918C27.4731 37.0352 25.105 35.3299 23.3991 32.9825C22.0344 31.1066 20.5694 30.3141 18.5525 29.2307C18.2414 29.0602 17.9103 28.8796 17.5691 28.699L17.4788 28.6489L25.7973 13.5314L26.4195 13.8825C28.4765 15.0261 31.0453 16.4606 35.019 17.3534L45.4347 19.7008C46.8596 20.0218 48.1841 20.714 49.2478 21.7171L51.054 23.4024C51.2145 23.5529 51.4253 23.6331 51.636 23.6231C51.8567 23.6131 52.0574 23.5228 52.1979 23.3623C52.4989 23.0312 52.4889 22.5196 52.1578 22.2187L50.3516 20.5334C49.0772 19.3397 47.4918 18.507 45.7859 18.1258L35.3702 15.7684C31.6173 14.9258 29.209 13.5816 27.0918 12.3979C26.8911 12.2875 26.6904 12.1772 26.4897 12.0668L26.4295 12.0367L26.4395 11.9665C26.5499 10.9634 26.0582 10.0003 25.1752 9.5088L24.814 9.30817C24.232 8.98716 23.5697 8.91694 22.9275 9.09751C22.2953 9.27807 21.7635 9.6994 21.4424 10.2812L12.3111 26.8833C11.6488 28.0771 12.0903 29.5918 13.2844 30.2439L13.6456 30.4445C14.5989 30.9762 15.7629 30.8257 16.5456 30.0734L16.5958 30.0232L16.656 30.0633C17.0373 30.274 17.3985 30.4646 17.7297 30.6451C19.7867 31.7586 20.9306 32.3706 22.0645 33.9455C23.9711 36.5738 26.6202 38.4797 29.7108 39.4729L36.8252 41.74L36.7449 41.8503C35.4906 43.5657 35.7916 45.9733 37.4172 47.3375C38.1497 47.9495 39.0628 48.2805 40.0061 48.2805C40.0663 48.2805 40.1265 48.2805 40.1867 48.2805L40.3071 48.2705L40.287 48.3909C40.0462 49.8053 40.5881 51.2599 41.6818 52.1727C42.5147 52.8649 43.5683 53.1959 44.632 53.0956C45.7056 52.9953 46.679 52.4837 47.3713 51.6611L50.7028 47.6686L50.7529 47.6786C51.9069 47.809 53.0508 47.3676 53.8235 46.4949L53.9439 46.3545L55.148 50.5878L55.138 50.6178C55.0979 50.7583 55.1079 50.9088 55.148 51.0492L56.2217 54.5C56.4224 55.142 56.8338 55.6035 57.4359 55.8643L57.4961 55.8944V55.9646C57.4961 56.0248 57.486 56.1352 57.466 56.2856C57.3456 57.3991 56.9944 60.7697 58.2085 64.1905C59.503 67.8419 62.1922 70.1993 65.9852 70.9818ZM15.5923 28.699C15.4418 28.9799 15.1408 29.1404 14.8397 29.1404C14.6993 29.1404 14.5588 29.1103 14.4283 29.0301L14.0671 28.8295C13.8664 28.7191 13.7259 28.5385 13.6557 28.3178C13.5955 28.0972 13.6155 27.8664 13.7259 27.6658L22.8673 11.0637C22.9777 10.863 23.1583 10.7226 23.379 10.6524C23.5998 10.5922 23.8306 10.6123 24.0313 10.7226L24.3925 10.9232C24.8039 11.154 24.9544 11.6756 24.7236 12.0869C24.7236 12.0969 15.5923 28.699 15.5923 28.699ZM41.4109 46.214C40.9895 46.5049 40.4978 46.6554 40.0161 46.6554C39.4642 46.6554 38.9123 46.4648 38.4708 46.0936C37.4473 45.2309 37.3068 43.7062 38.1597 42.6729L38.5009 42.2616L38.5611 42.2817C38.6615 42.3118 38.7518 42.3419 38.812 42.3619C39.2234 42.4823 39.2234 42.4823 41.0196 43.325C41.5213 43.5557 42.1534 43.8566 42.9863 44.2378L43.1067 44.298L43.0164 44.3983L41.4109 46.214ZM49.017 47.1971L46.1572 50.6279C45.7357 51.1295 45.1537 51.4304 44.5115 51.4906C44.4413 51.5006 44.361 51.5006 44.2908 51.5006C43.7289 51.5006 43.177 51.3 42.7455 50.9389C41.8223 50.1664 41.4611 48.6918 42.5548 47.3777L44.6621 45.0303L49.0973 47.0968L49.017 47.1971ZM51.5557 39.0114C49.2478 36.965 46.7191 34.9487 44.4212 33.3336L44.5115 33.153L50.5121 35.0289L51.8266 39.2522L51.5557 39.0114ZM56.593 49.7451L56.5629 49.6448L54.9674 43.9168V43.8967C55.0075 43.0641 54.7466 42.2115 54.2449 41.5494L54.2249 41.5193L52.4387 35.8013L52.6695 35.9418C54.6764 37.1957 54.9373 37.8678 57.4058 44.2278C57.8975 45.5018 58.4895 47.0165 59.1919 48.8021L59.232 48.9025L56.593 49.7451ZM57.7971 54.0787L57.0245 51.3L57.1148 51.2699L59.8341 50.4172L59.8742 50.4975C59.9646 50.6981 60.095 50.9188 60.2254 51.0893L60.2355 51.1194L60.8576 53.1358C60.9479 53.4668 60.6068 53.8179 60.2355 53.9383L58.7604 54.3997C58.6601 54.4298 58.5497 54.4499 58.4393 54.4499C58.1584 54.4398 57.8774 54.3295 57.7971 54.0787Z" fill="#303030"/>
</svg>
