<svg width="80" height="80" viewBox="0 0 80 80" fill="none" xmlns="http://www.w3.org/2000/svg">
<path d="M60.8448 34.0769C57.1731 35.6836 51.3529 37.7552 44.06 38.7355L42.9504 38.887L43.8381 38.1999C47.3484 35.4714 49.3658 31.3484 49.3658 26.8818C49.3658 25.4367 49.1539 24.022 48.7404 22.6678L48.6093 22.2434L49.043 22.2737C56.3359 22.7588 64.93 23.5167 73.4334 25.4064L80 23.0114L79.3948 21.3137L73.3022 23.5369L73.2316 23.5167C70.377 22.9306 55.1154 20 35.3146 20C20.5069 20 8.95726 22.0615 0 26.3058V28.1652C1.31131 29.489 3.20767 30.2267 5.05359 30.9341C6.33464 31.4292 7.66612 31.9446 8.78578 32.6621C14.8582 36.4314 22.4234 41.1304 35.3146 41.1304C46.8037 41.1304 55.8921 38.2302 61.571 35.7341L60.8448 34.0769ZM26.1052 38.3919C18.9636 36.8659 14.0411 33.8141 9.70369 31.116C8.25117 30.2065 6.63725 29.5193 5.09394 28.8625C4.24663 28.4987 3.36906 28.1248 2.52175 27.7205L1.89636 27.4174L2.54192 27.1647C4.93254 26.2249 11.5597 23.9108 21.445 22.6577L21.8989 22.5971L21.7778 23.0316C21.4349 24.2746 21.2634 25.5681 21.2634 26.8717C21.2634 31.1261 23.1295 35.1278 26.3674 37.8563L26.1052 38.3919ZM23.0286 26.8818C23.0286 25.3963 23.2808 23.9411 23.7851 22.5668L23.8457 22.3849L24.0373 22.3647C25.9639 22.1727 27.9309 22.0211 29.8878 21.9301L30.5737 21.8998L30.14 22.4253C28.7177 24.1129 28.1932 26.4978 28.758 28.6401L28.7984 28.7917L28.6975 28.913C28.2133 29.5092 27.941 30.257 27.941 31.025C27.941 32.8541 29.4036 34.3396 31.2092 34.3396C31.9657 34.3396 32.7021 34.0667 33.2871 33.5817L33.4081 33.4806L33.5594 33.5211C34.1344 33.6726 34.7195 33.7535 35.3045 33.7535C37.796 33.7535 40.116 32.3387 41.2861 30.1256L39.6823 29.3475C38.7038 31.116 36.6965 32.1568 34.6892 31.9143L34.3765 31.8739L34.4269 31.5606C34.5984 30.4995 34.2454 29.4587 33.4788 28.6806C32.7222 27.9226 31.7034 27.5892 30.6847 27.7509L30.372 27.8014L30.3316 27.4881C30.1702 26.0633 30.6241 24.6081 31.6026 23.5066C32.5608 22.4253 33.9125 21.8089 35.3045 21.8089C37.9675 21.8089 40.1463 23.9209 40.3077 26.5786H42.083C42.0124 25.0325 41.4374 23.5571 40.4287 22.3849L39.9849 21.8695L40.6708 21.8897C42.5873 21.9402 44.5341 22.0211 46.4708 22.1221L46.6625 22.1322L46.7331 22.3141C47.2979 23.7693 47.5905 25.3053 47.5905 26.8919C47.5905 33.7535 42.083 39.3317 35.3146 39.3317C28.5462 39.3317 23.0286 33.7434 23.0286 26.8818ZM31.2092 29.5193C32.0363 29.5193 32.7021 30.1964 32.7021 31.025C32.7021 31.8537 32.0363 32.5307 31.2092 32.5307C30.382 32.5307 29.7163 31.8537 29.7163 31.025C29.7163 30.1964 30.3921 29.5193 31.2092 29.5193Z" fill="#303030"/>
<path d="M58.5752 55.9248L60.2597 54.217L54.5908 48.467C53.0778 46.941 51.2218 46.1225 49.2246 46.1326C46.9146 46.1326 44.4837 47.2139 42.5167 49.1137L59.8159 66.6466L61.0768 65.3733L56.7696 61.0078L58.9283 58.825L69.0153 69.0416V73.4071L66.5238 70.8808L65.2629 72.1541L70.0542 77.0148C70.7401 77.7121 71.5572 78.0455 72.4347 77.995C73.2114 77.9445 73.9781 77.5706 74.6035 76.9643C75.2289 76.3478 75.6222 75.5394 75.6828 74.7411C75.7534 73.8417 75.4205 72.9827 74.7144 72.2753L58.5752 55.9248ZM57.6674 57.5517L55.5088 59.7345L45.0687 49.144L45.3713 48.9419C47.8628 47.2644 51.2117 47.5979 53.33 49.7504L57.738 54.217L56.0535 55.9248L57.6674 57.5517ZM73.4636 75.7415C73.1711 76.0447 72.8281 76.1962 72.4549 76.1962C72.4348 76.1962 72.4247 76.1962 72.4045 76.1962C71.6984 76.1659 71.1335 75.6202 70.8511 75.2868L70.7805 75.2059V70.8505L71.2949 71.376C71.416 71.4972 71.5874 71.6589 71.7892 71.8307C72.6567 72.6088 73.8469 73.6598 73.8772 74.7209C73.8974 75.1049 73.7561 75.4484 73.4636 75.7415Z" fill="#303030"/>
<path d="M61.914 68.7688L63.1345 70.0016L64.3853 68.7283L63.1648 67.4955L61.914 68.7688Z" fill="#303030"/>
<path d="M47.0054 61.7051H45.2301V64.1304H42.8395V65.9392H45.2301V68.3645H47.0054V65.9392H49.4061V64.1304H47.0054V61.7051Z" fill="#303030"/>
<path d="M20.0834 49.3746L19.8416 49.2322C19.3983 48.9677 18.9651 48.6829 18.5419 48.398C18.4513 48.337 18.3606 48.2963 18.2498 48.276C18.1893 48.2658 18.1389 48.2556 18.0785 48.2556C18.0281 48.2556 17.9777 48.2556 17.9274 48.2658C17.8266 48.2861 17.7259 48.3167 17.6352 48.3777C17.5445 48.4286 17.474 48.4998 17.4136 48.5811C17.3531 48.6625 17.3128 48.7541 17.2927 48.8456C17.2826 48.9575 17.2725 49.0491 17.2927 49.1508C17.3128 49.2525 17.343 49.3441 17.4035 49.4255C17.4639 49.5068 17.5345 49.5882 17.6151 49.6391C18.1389 49.9951 18.683 50.341 19.227 50.6665C19.4084 50.7784 19.63 50.8089 19.8416 50.7581C20.0531 50.7072 20.2345 50.5851 20.3352 50.4122C20.4461 50.2393 20.4763 50.0358 20.436 49.8425C20.3957 49.6493 20.2647 49.4865 20.0834 49.3746Z" fill="#303030"/>
<path d="M35.8302 53.4945C34.6615 53.586 33.4727 53.586 32.2939 53.4945C32.2637 53.4945 32.2335 53.4945 32.2033 53.4945C32.1227 53.4945 32.0421 53.5046 31.9615 53.525C31.8607 53.5555 31.76 53.6064 31.6794 53.6674C31.5988 53.7284 31.5282 53.8098 31.488 53.9014C31.4376 53.9929 31.4074 54.0845 31.4074 54.1862C31.4074 54.2879 31.4074 54.3795 31.4477 54.4812C31.4779 54.5728 31.5282 54.6643 31.5988 54.7355C31.6693 54.8169 31.7499 54.8779 31.8506 54.9186C31.9514 54.9695 32.0521 54.9898 32.163 55C33.4626 55.1017 34.7119 55.1017 35.9611 55C36.1727 54.9797 36.3742 54.8881 36.5052 54.7355C36.6361 54.5829 36.7067 54.3896 36.6865 54.1862C36.6664 53.9929 36.5656 53.7996 36.4145 53.6776C36.2634 53.5453 36.0417 53.4843 35.8302 53.4945Z" fill="#303030"/>
<path d="M27.9416 52.8129C27.861 52.7519 27.7603 52.701 27.6596 52.6705C26.5211 52.3551 25.3927 51.9686 24.3047 51.5108C24.2039 51.4701 24.1032 51.4498 23.9923 51.4396C23.9823 51.4396 23.9823 51.4396 23.9722 51.4396C23.8715 51.4396 23.7707 51.46 23.68 51.4905C23.5793 51.5312 23.4886 51.582 23.4181 51.6532C23.3375 51.7245 23.2871 51.8058 23.2367 51.8974C23.1964 51.9889 23.1763 52.0805 23.1763 52.1822C23.1763 52.2839 23.1964 52.3755 23.2367 52.467C23.277 52.5586 23.3375 52.64 23.408 52.7112C23.4785 52.7824 23.5692 52.8434 23.67 52.8841C24.8286 53.3622 26.0174 53.7793 27.2263 54.115C27.3271 54.1455 27.4379 54.1557 27.5387 54.1353C27.6394 54.1252 27.7502 54.0946 27.8409 54.0438C27.9316 53.9929 28.0122 53.9319 28.0726 53.8505C28.1331 53.7691 28.1834 53.6877 28.2137 53.586C28.2439 53.4945 28.254 53.3927 28.2338 53.291C28.2237 53.1893 28.1935 53.0977 28.1431 53.0164C28.0827 52.9452 28.0222 52.8739 27.9416 52.8129Z" fill="#303030"/>
<path d="M44.7161 51.6736C44.6455 51.6024 44.5549 51.5515 44.4541 51.5108C44.3635 51.4701 44.2526 51.46 44.1519 51.46H44.1418C44.031 51.46 43.9302 51.4803 43.8295 51.521C42.7414 51.9686 41.6131 52.3653 40.4746 52.6705C40.2832 52.7315 40.1119 52.8638 40.0112 53.0367C39.9104 53.2096 39.8903 53.4131 39.9407 53.5962C40.0011 53.7895 40.1321 53.9522 40.3134 54.054C40.4948 54.1557 40.7164 54.1862 40.928 54.1252C42.1269 53.7895 43.3258 53.3826 44.4743 52.9045C44.575 52.8638 44.6556 52.8027 44.7362 52.7315C44.8067 52.6603 44.8672 52.5789 44.8974 52.4874C44.9377 52.3958 44.9579 52.2941 44.9579 52.2026C44.9579 52.1008 44.9377 52.0093 44.8974 51.9177C44.847 51.8262 44.7866 51.7448 44.7161 51.6736Z" fill="#303030"/>
</svg>
