<svg width="80" height="80" viewBox="0 0 80 80" fill="none" xmlns="http://www.w3.org/2000/svg">
<path d="M41.3889 55.7679C34.979 55.7679 29.7645 50.5756 29.7645 44.1938C29.7645 37.812 34.979 32.6197 41.3889 32.6197C47.7984 32.6197 53.0129 37.812 53.0129 44.1938C53.0129 50.5756 47.7984 55.7679 41.3889 55.7679ZM41.3889 34.2612C35.8883 34.2612 31.4127 38.717 31.4127 44.1938C31.4127 49.6707 35.8883 54.1265 41.3889 54.1265C46.8896 54.1265 51.3647 49.6707 51.3647 44.1938C51.3647 38.717 46.8896 34.2612 41.3889 34.2612Z" fill="#303030"/>
<path d="M52.3266 58.9056C51.8418 59.1141 51.3414 59.3124 50.839 59.4957C50.4116 59.6512 50.1919 60.1224 50.3485 60.548C50.4708 60.8808 50.7866 61.0867 51.1226 61.0867C51.2166 61.0867 51.3123 61.0705 51.4058 61.0367C51.9375 60.8428 52.467 60.633 52.9797 60.4125C53.3977 60.2331 53.5904 59.7499 53.4097 59.3337C53.2295 58.918 52.7446 58.7262 52.3266 58.9056Z" fill="#303030"/>
<path d="M56.2689 56.8082C55.826 57.0949 55.3669 57.3722 54.9039 57.6328C54.5074 57.8558 54.3679 58.3565 54.5919 58.7509C54.7434 59.0179 55.0223 59.1679 55.3102 59.1679C55.4476 59.1679 55.5866 59.1337 55.7149 59.0615C56.2075 58.7842 56.6962 58.489 57.1674 58.1844C57.5489 57.9374 57.6574 57.429 57.4094 57.0492C57.161 56.6689 56.6508 56.5612 56.2689 56.8082Z" fill="#303030"/>
<path d="M59.7776 54.0653C59.3932 54.4263 58.9911 54.7801 58.5826 55.1163C58.232 55.4051 58.1827 55.9225 58.4728 56.2716C58.6358 56.4681 58.8714 56.5694 59.1082 56.5694C59.2932 56.5694 59.4794 56.5078 59.6335 56.3809C60.069 56.0221 60.4981 55.6448 60.9088 55.2594C61.24 54.9484 61.255 54.4293 60.9427 54.0995C60.6307 53.7696 60.1089 53.7542 59.7776 54.0653Z" fill="#303030"/>
<path d="M17.4532 50.5465C17.0816 50.8088 16.994 51.3211 17.2575 51.6907C17.5823 52.1466 17.9307 52.6011 18.2942 53.0412C18.4568 53.239 18.6933 53.3411 18.9314 53.3411C19.1155 53.3411 19.3009 53.28 19.4541 53.1549C19.8059 52.8673 19.857 52.3504 19.5678 52C19.2292 51.5894 18.9044 51.166 18.6019 50.7413C18.3388 50.3713 17.8243 50.2842 17.4532 50.5465Z" fill="#303030"/>
<path d="M48.0838 60.3514C47.5719 60.4847 47.0458 60.6073 46.5197 60.7167C46.0743 60.8094 45.7885 61.2439 45.8812 61.6878C45.9627 62.0749 46.3052 62.3406 46.6875 62.3406C46.7433 62.3406 46.7999 62.3351 46.8566 62.3231C47.4092 62.2082 47.9623 62.0792 48.5004 61.9395C48.9407 61.825 49.2046 61.3763 49.0896 60.938C48.9746 60.4996 48.5249 60.2365 48.0838 60.3514Z" fill="#303030"/>
<path d="M62.7221 50.7358C62.4132 51.1601 62.0836 51.5809 61.7438 51.9868C61.452 52.3346 61.4988 52.8519 61.8481 53.1425C62.0021 53.2706 62.1896 53.333 62.3759 53.333C62.6114 53.333 62.8457 53.2331 63.0088 53.0387C63.3731 52.6046 63.7254 52.1538 64.0566 51.6997C64.324 51.3327 64.2416 50.8195 63.8734 50.5534C63.5048 50.2872 62.9895 50.3688 62.7221 50.7358Z" fill="#303030"/>
<path d="M25.0113 56.8514C24.6307 56.6027 24.1197 56.7087 23.8704 57.0877C23.6206 57.4666 23.727 57.9755 24.1077 58.2237C24.578 58.5309 25.0658 58.8278 25.558 59.1064C25.6863 59.1795 25.8262 59.2141 25.9648 59.2141C26.251 59.2141 26.5299 59.065 26.6818 58.7992C26.9067 58.4053 26.7685 57.9041 26.3729 57.6802C25.9112 57.4183 25.4529 57.1394 25.0113 56.8514Z" fill="#303030"/>
<path d="M28.9458 58.9547C28.5279 58.7753 28.043 58.9675 27.8628 59.3837C27.6826 59.7998 27.8752 60.2826 28.2932 60.4621C28.8077 60.6825 29.338 60.8923 29.8693 61.0846C29.9624 61.1183 30.0576 61.1341 30.1508 61.1341C30.4876 61.1341 30.8038 60.9273 30.9253 60.5937C31.081 60.1677 30.8605 59.6969 30.4327 59.5422C29.9311 59.3606 29.4307 59.1632 28.9458 58.9547Z" fill="#303030"/>
<path d="M21.5184 54.0914C21.1893 53.7782 20.6675 53.7902 20.3534 54.1179C20.0389 54.4456 20.0509 54.9651 20.38 55.2783C20.7877 55.6658 21.2151 56.046 21.6493 56.4079C21.8038 56.5361 21.9913 56.5989 22.1775 56.5989C22.4131 56.5989 22.647 56.4989 22.81 56.3049C23.1023 55.9572 23.0559 55.4398 22.707 55.1488C22.2998 54.81 21.9003 54.4541 21.5184 54.0914Z" fill="#303030"/>
<path d="M33.1879 60.3856C32.7467 60.2737 32.2983 60.5394 32.1859 60.9786C32.0739 61.4178 32.3404 61.8643 32.7815 61.9762C33.3205 62.1125 33.8753 62.2377 34.4297 62.3484C34.4842 62.359 34.5387 62.3642 34.5923 62.3642C34.9772 62.3642 35.3214 62.0946 35.3995 61.7045C35.4887 61.2602 35.1991 60.8278 34.7528 60.7389C34.2259 60.6343 33.6994 60.5151 33.1879 60.3856Z" fill="#303030"/>
<path d="M44.5805 61.901C44.5243 61.4511 44.1115 61.1324 43.661 61.188C43.1349 61.2529 42.5951 61.3084 42.0565 61.352C41.603 61.3892 41.2653 61.7853 41.3026 62.2369C41.3374 62.6658 41.6982 62.9905 42.1231 62.9905C42.1454 62.9905 42.1681 62.9897 42.1909 62.9879C42.7521 62.9422 43.3151 62.8846 43.8644 62.8166C44.3162 62.7607 44.6367 62.3509 44.5805 61.901Z" fill="#303030"/>
<path d="M39.9844 62.1932C40.0144 61.7412 39.6707 61.3503 39.2167 61.3204C38.6778 61.2845 38.138 61.2371 37.6123 61.179C37.1601 61.1285 36.7524 61.4533 36.7022 61.9036C36.652 62.3543 36.9777 62.7598 37.4304 62.8102C37.9801 62.8709 38.5443 62.9204 39.1078 62.958C39.1262 62.9593 39.1447 62.9597 39.1631 62.9597C39.5931 62.9597 39.9557 62.6269 39.9844 62.1932Z" fill="#303030"/>
<path d="M64.6509 59.678C63.8515 60.3719 63.0714 61.0708 62.3166 61.7472C58.5826 65.0929 55.0553 68.2533 50.1177 69.899C46.3566 71.1522 42.3325 71.6114 38.4795 71.2269C33.6448 70.7446 30.3227 69.4039 26.2231 66.2807C24.729 65.1425 23.3215 63.7634 21.9604 62.4299C19.9041 60.4146 17.7775 58.3309 15.2089 56.9018C14.8111 56.6805 14.3091 56.8223 14.0872 57.2179C13.8649 57.6136 14.0074 58.1134 14.4048 58.3343C16.7798 59.6558 18.7348 61.5716 20.8044 63.5997C22.2011 64.9686 23.6459 66.3841 25.2216 67.5842C29.5924 70.9138 33.1411 72.3438 38.3152 72.8599C39.2532 72.9534 40.2002 73 41.1516 73C44.3411 73 47.5748 72.4771 50.6412 71.4555C55.9037 69.7017 59.5545 66.4302 63.4194 62.967C64.1695 62.2953 64.9449 61.6002 65.7344 60.9153C66.0773 60.6175 66.1133 60.0989 65.8142 59.7575C65.5147 59.4157 64.9942 59.3802 64.6509 59.678Z" fill="#303030"/>
<path d="M67.801 31.0363C67.1475 29.9173 66.3266 28.8129 65.362 27.7542C63.9305 26.1832 62.345 24.7472 60.7766 23.6018C58.5015 21.9402 56.5306 20.7674 54.5735 19.9104C53.4819 19.4323 52.3246 19.0067 51.1338 18.6461C45.9816 17.085 39.966 16.6312 33.254 17.2977C32.8626 17.3366 32.4657 17.3811 32.074 17.4306C31.6225 17.4874 31.3029 17.898 31.3599 18.3479C31.417 18.7974 31.8289 19.1157 32.2812 19.0589C32.6584 19.011 33.0407 18.9683 33.4175 18.9307C39.9119 18.286 45.7108 18.7183 50.6537 20.2163C51.7822 20.5581 52.8777 20.9605 53.9097 21.4126C55.754 22.2201 57.6261 23.336 59.8017 24.925C61.2821 26.0063 62.7827 27.3658 64.1412 28.8569C64.814 29.5956 65.4092 30.3557 65.9177 31.1247C62.4415 29.1124 58.538 27.3376 54.0153 25.7124C50.6558 24.5045 46.4742 23.0011 42.2317 23.1262C40.6182 23.1737 38.928 23.3664 37.2073 23.6992C32.8528 24.5409 28.2884 26.2584 23.6408 28.8031C23.5696 28.842 23.3533 28.9607 18.9778 31.7263C18.7782 31.8528 18.5122 31.822 18.3465 31.6537L13.7942 27.0334C13.6535 26.8907 13.6436 26.7258 13.65 26.6404C13.6565 26.5562 13.6904 26.3977 13.847 26.2806C18.0363 23.1502 23.1448 20.8691 28.621 19.6839C29.0655 19.5878 29.3479 19.1507 29.2513 18.7077C29.1543 18.2646 28.7158 17.9839 28.2708 18.08C22.5646 19.3148 17.2347 21.6967 12.8575 24.9681C12.3631 25.3372 12.0529 25.9016 12.0061 26.5164C11.9594 27.1338 12.1821 27.7409 12.6176 28.1827L17.1699 32.803C17.5853 33.2242 18.1462 33.443 18.7117 33.443C19.1095 33.443 19.5094 33.3345 19.8613 33.1119C23.8421 30.5958 24.3699 30.2779 24.4355 30.2412C28.9325 27.779 33.3355 26.12 37.5214 25.3103C39.155 24.9942 40.756 24.8113 42.2802 24.7669C46.2073 24.6511 50.2276 26.0956 53.4557 27.256C58.2076 28.9641 62.254 30.8359 65.8254 32.9773C66.394 33.3186 67.0943 33.2358 67.5676 32.7718C68.0417 32.3065 68.1357 31.6092 67.801 31.0363Z" fill="#303030"/>
<path d="M41.3889 69.1339C41.8442 69.1339 42.2132 68.7665 42.2132 68.3132V67.3604C42.3394 67.4331 42.4814 67.4698 42.6243 67.4698C42.8212 67.4698 43.0191 67.4002 43.1765 67.2579C43.5143 66.9541 43.5404 66.435 43.2353 66.0992L42.0012 64.7406C41.8455 64.5688 41.6236 64.4705 41.3906 64.4705C41.158 64.4705 40.9358 64.5684 40.7796 64.7401L39.5429 66.0983C39.2374 66.4342 39.2627 66.9533 39.6 67.2575C39.8716 67.5027 40.2629 67.5335 40.5646 67.3604V68.3132C40.5646 68.7665 40.9336 69.1339 41.3889 69.1339Z" fill="#303030"/>
<path d="M49.5595 30.9649C45.2234 29.3619 41.8069 29.4209 41.3889 29.4358C40.9705 29.4209 37.5545 29.3619 33.2184 30.9649C29.0458 32.5073 23.2036 35.9509 19.0674 43.5982C18.8658 43.9712 18.8658 44.4164 19.0674 44.7894C23.2036 52.4366 29.0458 55.8803 33.2184 57.4226C37.5527 59.0248 40.9688 58.9658 41.3881 58.9517C41.443 58.9539 41.5447 58.9564 41.6893 58.9564C43.171 58.9564 49.1574 58.6774 55.2099 54.4832C55.5836 54.2242 55.6759 53.7128 55.4154 53.3407C55.1554 52.969 54.6422 52.8771 54.2684 53.1361C47.9173 57.5375 41.4898 57.3137 41.4271 57.3107C41.4014 57.3098 41.376 57.3098 41.3507 57.3107C41.3177 57.3128 38.0136 57.4444 33.7921 55.8841C31.3076 54.9659 29.0123 53.65 26.9698 51.9739C24.46 49.9138 22.3239 47.2969 20.6182 44.1938C22.3153 41.1061 24.4389 38.4994 26.9329 36.4444C28.9655 34.7691 31.2501 33.4519 33.723 32.5291C37.9548 30.95 41.3177 31.0747 41.3507 31.0769C41.3752 31.0777 41.4014 31.0777 41.4258 31.0769C41.4593 31.0752 44.823 30.95 49.0544 32.5291C51.5277 33.4519 53.8123 34.7691 55.8445 36.4444C58.3385 38.4994 60.4621 41.1061 62.1592 44.1938C60.7552 46.7483 59.0538 48.9811 57.1001 50.8332C56.7705 51.1455 56.7576 51.665 57.0713 51.9932C57.385 52.3213 57.9068 52.3341 58.2363 52.0218C60.3625 50.0065 62.2042 47.5729 63.71 44.7894C63.9116 44.4164 63.9116 43.9712 63.71 43.5982C59.5743 35.9509 53.732 32.5073 49.5595 30.9649Z" fill="#303030"/>
<path d="M43.988 35.3233C42.7084 35.3233 41.555 35.8702 40.7496 36.7409C36.9044 37.0652 33.8745 40.2828 33.8745 44.1938C33.8745 48.3193 37.2451 51.6758 41.3889 51.6758C45.5323 51.6758 48.9034 48.3193 48.9034 44.1938C48.9034 43.0595 48.6463 41.9845 48.1906 41.0202C48.3211 40.6058 48.3919 40.1653 48.3919 39.7086C48.3919 37.2904 46.4163 35.3233 43.988 35.3233ZM43.988 36.9648C45.5074 36.9648 46.7437 38.1953 46.7437 39.7081C46.7437 41.221 45.5074 42.4519 43.988 42.4519C42.4685 42.4519 41.2323 41.221 41.2323 39.7081C41.2323 38.1953 42.4685 36.9648 43.988 36.9648ZM41.3889 50.0347C38.1543 50.0347 35.5227 47.4144 35.5227 44.1938C35.5227 41.5474 37.3004 39.3087 39.7287 38.5939C39.6347 38.9502 39.5841 39.3232 39.5841 39.7086C39.5841 42.1264 41.5597 44.0934 43.988 44.0934C45.1963 44.0934 46.2927 43.6059 47.0891 42.8185C47.1968 43.2599 47.2552 43.72 47.2552 44.1938C47.2552 47.4144 44.6235 50.0347 41.3889 50.0347Z" fill="#303030"/>
</svg>
