<svg width="80" height="80" viewBox="0 0 80 80" fill="none" xmlns="http://www.w3.org/2000/svg">
<path d="M34.2816 30.5902C35.6194 30.2371 36.9975 29.9748 38.3756 29.7932C38.5969 29.763 38.7981 29.652 38.9389 29.4704C39.0697 29.2888 39.1301 29.0769 39.0999 28.855C39.0395 28.4313 38.6774 28.1286 38.2549 28.1286C38.2147 28.1286 38.1845 28.1286 38.1443 28.1387C36.6957 28.3304 35.2472 28.6129 33.839 28.9761C33.6177 29.0366 33.4366 29.1677 33.3159 29.3695C33.2052 29.5612 33.1751 29.7831 33.2253 30.0051C33.3561 30.4288 33.8188 30.7012 34.2816 30.5902Z" fill="#303030"/>
<path d="M50.8288 30.449C52.1767 30.7718 53.5247 31.1855 54.8122 31.6798C55.2448 31.8412 55.7477 31.6092 55.9087 31.1956C55.9891 30.9837 55.9791 30.7617 55.8886 30.56C55.798 30.3582 55.627 30.1968 55.4158 30.1161C54.0477 29.6016 52.6395 29.1677 51.2211 28.8247C50.7685 28.7138 50.3057 28.9962 50.1951 29.4401C50.1448 29.652 50.175 29.884 50.2957 30.0656C50.4164 30.2573 50.6075 30.3885 50.8288 30.449Z" fill="#303030"/>
<path d="M59.0169 31.8009C58.7152 31.8009 58.4235 31.9623 58.2625 32.2448C58.1619 32.4364 58.1317 32.6685 58.2022 32.8803C58.2726 33.0922 58.4134 33.2738 58.6146 33.3747C59.8418 34.0204 61.0388 34.7467 62.1654 35.5437C62.5376 35.796 63.0909 35.7052 63.3524 35.342C63.4832 35.1604 63.5335 34.9384 63.4933 34.7165C63.453 34.4945 63.3323 34.3028 63.1512 34.1717C61.9542 33.3343 60.6968 32.5676 59.4193 31.8917C59.2885 31.8311 59.1477 31.8009 59.0169 31.8009Z" fill="#303030"/>
<path d="M42.5401 29.5007C42.6407 29.5007 42.7413 29.5007 42.8419 29.5007C44.1395 29.5007 45.4371 29.5713 46.7247 29.7226C47.1774 29.7731 47.6099 29.4401 47.6602 28.9861C47.6904 28.7642 47.62 28.5422 47.4892 28.3707C47.3383 28.1891 47.1371 28.0782 46.9058 28.0479C45.4472 27.8764 43.9584 27.7957 42.53 27.8159C42.2987 27.8159 42.0874 27.9067 41.9365 28.0681C41.7756 28.2295 41.6951 28.4414 41.6951 28.6633C41.6951 29.1274 42.0673 29.5007 42.5401 29.5007Z" fill="#303030"/>
<path d="M19.8165 38.5602C20.8224 37.6119 21.9088 36.7241 23.0254 35.9069C23.2065 35.7758 23.3272 35.574 23.3573 35.3521C23.3875 35.1301 23.3372 34.9082 23.2065 34.7266C23.0355 34.5046 22.784 34.3835 22.5224 34.3835C22.3514 34.3835 22.1704 34.434 22.0195 34.545C20.8426 35.4025 19.7159 36.3407 18.6497 37.3294C18.4887 37.4808 18.3881 37.6926 18.3881 37.9146C18.3881 38.1365 18.4585 38.3484 18.6195 38.5098C18.9213 38.8528 19.4846 38.8629 19.8165 38.5602Z" fill="#303030"/>
<path d="M26.5461 33.6673C27.7532 33.0014 29.0307 32.3961 30.3183 31.8917C30.5295 31.811 30.6904 31.6495 30.781 31.4377C30.8715 31.2359 30.8715 31.0039 30.791 30.8021C30.62 30.3683 30.1271 30.1665 29.6845 30.338C28.3265 30.8727 26.9987 31.5083 25.7212 32.2044C25.5201 32.3154 25.3792 32.497 25.3189 32.7088C25.2585 32.9207 25.2786 33.1527 25.3893 33.3444C25.6005 33.7278 26.1437 33.8892 26.5461 33.6673Z" fill="#303030"/>
<path d="M20.1082 24.5169C20.5508 24.6279 21.0236 24.3555 21.1443 23.9116L21.3958 22.9431L23.3473 26.01C23.5887 26.3934 24.1319 26.5145 24.5141 26.2723C24.7053 26.1513 24.836 25.9697 24.8863 25.7477C24.9366 25.5258 24.8964 25.3038 24.7757 25.1222L22.8142 22.0452L23.7999 22.2369C24.2627 22.3277 24.7053 22.025 24.7958 21.5711C24.836 21.3491 24.7958 21.1272 24.665 20.9456C24.5343 20.7539 24.3431 20.6328 24.1218 20.5824L21.2047 20.0174C20.7621 19.9367 20.3295 20.2091 20.2189 20.6328L19.4946 23.498C19.4343 23.7098 19.4745 23.9419 19.5852 24.1336C19.6958 24.3252 19.8869 24.4665 20.1082 24.5169Z" fill="#303030"/>
<path d="M56.2909 25.7478C56.3412 25.9697 56.472 26.1513 56.6631 26.2724C57.0453 26.5145 57.5885 26.3934 57.83 26.0101L59.7915 22.9431L60.043 23.9116C60.1536 24.3555 60.6264 24.6279 61.0791 24.517C61.3004 24.4564 61.4814 24.3253 61.6021 24.1235C61.7128 23.9318 61.743 23.7099 61.6927 23.4879L60.9584 20.6328C60.8477 20.199 60.4152 19.9266 59.9726 20.0174L57.0554 20.5824C56.8341 20.6228 56.6329 20.7539 56.5122 20.9456C56.3915 21.1272 56.3412 21.3491 56.3915 21.5711C56.4619 22.0251 56.9146 22.3277 57.3672 22.2369L58.353 22.0452L56.3915 25.1223C56.2809 25.3039 56.2406 25.5359 56.2909 25.7478Z" fill="#303030"/>
<path d="M75.0814 45.8442C74.6489 45.481 74.2063 45.138 73.7536 44.795L72.4258 43.2615C72.1844 42.9891 71.8022 42.8882 71.4601 43.0295L71.3596 43.0698L71.269 43.0093C70.6051 42.5654 69.9211 42.1316 69.2371 41.718L68.8749 41.5061L69.2673 41.3548C69.3578 41.3245 69.4483 41.2741 69.5288 41.2034C69.6998 41.0622 69.8004 40.8503 69.8205 40.6284C69.8406 40.4064 69.7702 40.1845 69.6193 40.0231C68.6436 38.9032 67.6276 37.8641 66.5714 36.8956C66.2294 36.5829 65.6862 36.603 65.3744 36.9461C65.2235 37.1075 65.143 37.3294 65.1531 37.5514C65.1631 37.7733 65.2637 37.9852 65.4247 38.1365C66.1892 38.8326 66.9436 39.5792 67.6678 40.3661L67.4264 40.6788C62.7691 38.1466 57.7697 36.4114 52.559 35.5135C44.391 34.1011 35.9514 34.7972 28.1556 37.5312C27.9444 37.6018 27.7734 37.7632 27.6728 37.965C27.5722 38.1668 27.5621 38.3887 27.6426 38.6006C27.7935 39.0344 28.2864 39.2664 28.729 39.1151C36.2532 36.482 44.391 35.806 52.2774 37.168C59.6306 38.4392 66.6619 41.5061 72.6069 46.0258L72.4258 46.3789C63.1915 43.4835 53.5951 42.1417 43.8981 42.4141C33.9698 42.6865 24.2426 44.6336 14.9882 48.1948L9.13379 50.4446L8.95273 50.0814L19.5148 43.5238C21.1042 42.5351 22.7639 41.6373 24.4538 40.8503C24.655 40.7595 24.816 40.588 24.8964 40.3762C24.9669 40.1643 24.9568 39.9424 24.8663 39.7406C24.6651 39.3169 24.1621 39.1353 23.7396 39.3371C21.9894 40.1542 20.2692 41.0824 18.6296 42.1013L14.9882 44.3612L14.7367 44.0585L16.9497 41.5868C17.1006 41.4153 17.171 41.2034 17.161 40.9815C17.1509 40.7595 17.0503 40.5477 16.8793 40.4064C16.5273 40.0937 15.9941 40.124 15.6823 40.4771L12.8356 43.655C12.6847 43.8265 12.6143 44.0383 12.6243 44.2603C12.6344 44.4822 12.735 44.684 12.906 44.8353C13.0166 44.9261 13.1373 44.9968 13.2782 45.027L13.7509 45.138L11.1356 46.7421L11.0249 46.6715C10.6728 46.4495 10.2202 46.5201 9.93852 46.8228L8.60066 48.3058L6.13617 49.8393C5.36162 50.3235 4.92908 51.1811 5.00955 52.079C5.09002 52.9768 5.65334 53.7537 6.4983 54.0967L11.4273 56.1144L20.561 61.6329C20.8426 61.8044 21.1645 61.986 21.5166 62.1877C21.9089 62.4097 22.4521 62.2584 22.6734 61.875C22.784 61.6833 22.8142 61.4513 22.7538 61.2394C22.6935 61.0175 22.5527 60.846 22.3515 60.7249C22.0095 60.5332 21.7077 60.3617 21.4361 60.1902L15.4811 56.5886L15.1089 55.0349C14.7267 53.4409 14.616 51.7965 14.787 50.1621L14.7971 50.0411L15.5716 49.7384C19.2533 48.326 23.0657 47.1456 26.9083 46.2578L27.1899 46.1973L27.1597 46.4798C27.0994 47.0347 27.0692 47.5895 27.0692 48.1343C27.0692 56.1749 33.6579 62.7123 41.7555 62.7123C44.6727 62.7123 47.4892 61.8649 49.9135 60.2608C50.1046 60.1398 50.2253 59.9481 50.2756 59.7261C50.3159 59.5042 50.2756 59.2822 50.1448 59.1006C49.8833 58.7173 49.3602 58.6063 48.9679 58.8686C46.8354 60.281 44.3407 61.0376 41.7555 61.0376C34.5934 61.0376 28.7692 55.2569 28.7692 48.1444C28.7692 47.418 28.8296 46.6816 28.9603 45.9552L28.9804 45.824L29.1112 45.7938C30.4994 45.5113 31.9177 45.2591 33.3059 45.0472L33.497 45.0169L33.5272 45.2086C33.5775 45.5113 33.668 45.8139 33.7787 46.1065L33.7988 46.167L33.7787 46.2276C33.6278 46.8631 33.5473 47.5088 33.5473 48.1444C33.5473 52.6237 37.2189 56.2758 41.7354 56.2758C46.252 56.2758 49.9336 52.6237 49.9336 48.1444C49.9336 46.843 49.6117 45.5516 49.0082 44.4015L48.8472 44.0989L49.1892 44.109C50.7987 44.1594 52.4283 44.2603 54.0277 44.4116L54.1584 44.4217L54.1987 44.5529C54.5407 45.7231 54.7117 46.9338 54.7117 48.1444C54.7117 51.0297 53.7762 53.7537 52.0058 56.0236C51.865 56.2052 51.8046 56.4171 51.8348 56.639C51.865 56.861 51.9756 57.0627 52.1567 57.1939C52.5188 57.4663 53.0721 57.3956 53.3437 57.0425C55.3454 54.47 56.4016 51.3929 56.4016 48.1343C56.4016 47.0447 56.2809 45.9451 56.0294 44.8757L55.9691 44.5932L56.2507 44.6235C61.743 45.2691 67.2152 46.4596 72.5063 48.1646L73.8643 48.5984L61.562 58.001C51.5028 65.6885 37.9733 67.4641 26.2544 62.6216C26.1438 62.5812 26.0331 62.561 25.9325 62.561C25.6006 62.561 25.2787 62.7527 25.1479 63.0755C25.0574 63.2773 25.0574 63.5093 25.1479 63.7111C25.2284 63.923 25.3994 64.0844 25.6106 64.1752C30.1473 66.0517 34.9455 67 39.8745 67C48.0727 67 56.1502 64.2761 62.6081 59.3428L74.9808 49.8897C75.6146 49.4055 75.9867 48.669 75.9968 47.872C76.037 47.0952 75.695 46.3486 75.0814 45.8442ZM12.2823 54.6616C12.2421 54.6415 12.2018 54.6213 12.1716 54.6011L7.73557 52.7852L13.0569 50.7271L13.0468 51.0297C12.9965 52.3312 13.1071 53.6326 13.3687 54.9139L13.4592 55.3678L12.2823 54.6616ZM35.1869 44.7849L35.3982 44.7546C37.3597 44.5024 39.3514 44.3208 41.323 44.2098L41.5342 44.1998V44.4116C41.5141 46.1368 40.0857 47.5391 38.3455 47.5391C36.8366 47.5391 35.5189 46.4697 35.2171 44.9968L35.1869 44.7849ZM41.7656 54.6011C38.3354 54.6011 35.4887 51.9377 35.2775 48.5479L35.2573 48.1343L35.5994 48.3664C36.4141 48.9212 37.3698 49.2138 38.3556 49.2138C41.0514 49.2138 43.2342 47.0447 43.2342 44.3713L43.2242 44.1695L43.4254 44.109L43.9283 44.0888C44.8437 44.0686 45.7792 44.0585 46.6845 44.0585H46.7851L46.8455 44.1291C47.7508 45.2591 48.2537 46.6916 48.2537 48.1444C48.2638 51.7057 45.3466 54.6011 41.7656 54.6011Z" fill="#303030"/>
</svg>
