<svg width="80" height="80" viewBox="0 0 80 80" fill="none" xmlns="http://www.w3.org/2000/svg">
<path d="M19.476 50.4902C19.3412 49.9685 19.2239 49.4348 19.1273 48.9042C19.0439 48.4463 18.6051 48.1428 18.1489 48.2264C17.6919 48.31 17.389 48.7489 17.4725 49.2068C17.5764 49.7775 17.7026 50.3515 17.8476 50.9127C17.9457 51.2924 18.2871 51.5444 18.6613 51.5444C18.7311 51.5444 18.802 51.5357 18.8727 51.5173C19.3223 51.4007 19.5924 50.9409 19.476 50.4902Z" fill="#303030"/>
<path d="M37.0009 66.9234C35.9671 66.7278 34.9384 66.4561 33.9434 66.1159C33.5042 65.9657 33.0259 66.2008 32.8757 66.6414C32.7257 67.0819 32.9606 67.5609 33.4002 67.7111C34.4703 68.077 35.5767 68.3693 36.6886 68.5796C36.7414 68.5896 36.7938 68.5945 36.8456 68.5945C37.242 68.5945 37.5949 68.3124 37.6711 67.9079C37.7576 67.4505 37.4574 67.0098 37.0009 66.9234Z" fill="#303030"/>
<path d="M54.924 62.6098C54.0916 63.2567 53.2068 63.8496 52.294 64.3717C51.8907 64.6025 51.7503 65.1172 51.9807 65.5214C52.1359 65.7938 52.4197 65.9465 52.7119 65.9465C52.8533 65.9465 52.9966 65.9108 53.1282 65.8355C54.1092 65.2742 55.0603 64.6371 55.9551 63.9417C56.322 63.6565 56.3888 63.127 56.1042 62.7594C55.8194 62.3914 55.2908 62.3245 54.924 62.6098Z" fill="#303030"/>
<path d="M23.7128 58.9268C23.4214 58.5643 22.8921 58.507 22.5301 58.7991C22.1683 59.0911 22.1114 59.6216 22.4027 59.9841C23.1119 60.8664 23.8901 61.7065 24.7155 62.4808C24.8776 62.633 25.0841 62.7084 25.2901 62.7084C25.5147 62.7084 25.7386 62.6188 25.9043 62.4416C26.2218 62.1018 26.2043 61.5685 25.8651 61.2504C25.0971 60.5297 24.3729 59.748 23.7128 58.9268Z" fill="#303030"/>
<path d="M20.4843 53.494C20.3053 53.0645 19.8129 52.8617 19.3841 53.041C18.9555 53.2204 18.753 53.7139 18.932 54.1435C19.3672 55.1879 19.8818 56.2119 20.4613 57.1871C20.6187 57.4519 20.8981 57.5989 21.1847 57.5989C21.3312 57.5989 21.4795 57.5605 21.6143 57.4801C22.0135 57.242 22.1444 56.7247 21.9066 56.3248C21.3675 55.4175 20.8891 54.4652 20.4843 53.494Z" fill="#303030"/>
<path d="M49.4425 65.7446C48.4641 66.1327 47.4491 66.4539 46.4255 66.6992C45.9737 66.8074 45.695 67.2621 45.8031 67.7149C45.8952 68.1017 46.24 68.3618 46.6204 68.3618C46.6851 68.3618 46.7509 68.3543 46.8166 68.3385C47.9176 68.0747 49.0096 67.7293 50.0618 67.3118C50.4938 67.1405 50.7052 66.6508 50.5343 66.218C50.363 65.7852 49.8738 65.5732 49.4425 65.7446Z" fill="#303030"/>
<path d="M31.0311 64.8826C30.0944 64.4048 29.1826 63.8552 28.3207 63.2492C27.9406 62.9818 27.416 63.0739 27.1492 63.4548C26.8823 63.8358 26.9741 64.3614 27.3544 64.6287C28.2807 65.2802 29.2611 65.871 30.268 66.3846C30.3902 66.447 30.5205 66.4765 30.6488 66.4765C30.9551 66.4765 31.2505 66.3082 31.399 66.0159C31.6098 65.6012 31.445 65.0937 31.0311 64.8826Z" fill="#303030"/>
<path d="M43.3058 67.2159C42.2625 67.3136 41.1934 67.3387 40.1425 67.2904C39.6786 67.2684 39.2851 67.6286 39.2638 68.0936C39.2425 68.5586 39.6013 68.9528 40.0654 68.9742C40.4379 68.9912 40.8164 69 41.1901 69C41.9474 69 42.7118 68.9644 43.4623 68.894C43.9248 68.8508 44.2646 68.44 44.2215 67.9764C44.1783 67.5131 43.7692 67.172 43.3058 67.2159Z" fill="#303030"/>
<path d="M63.3619 51.9891C62.9247 51.8308 62.4428 52.0569 62.2846 52.4946C61.9269 53.4844 61.4945 54.4585 60.9996 55.3895C60.7813 55.8004 60.9366 56.3108 61.3467 56.5295C61.4726 56.5967 61.6078 56.6286 61.7413 56.6286C62.0422 56.6286 62.3331 56.4665 62.4845 56.1819C63.0166 55.1805 63.4815 54.1331 63.8663 53.0686C64.0243 52.631 63.7986 52.1477 63.3619 51.9891Z" fill="#303030"/>
<path d="M60.4956 57.8895C60.1204 57.6153 59.5943 57.6975 59.3204 58.0736C58.7006 58.9248 58.0146 59.7398 57.2816 60.4963C56.9579 60.8301 56.9658 61.3638 57.2988 61.688C57.4623 61.8471 57.6736 61.9262 57.8848 61.9262C58.1041 61.9262 58.3234 61.8407 58.4882 61.6705C59.276 60.8578 60.0133 59.9819 60.6793 59.0672C60.953 58.6911 60.8708 58.1638 60.4956 57.8895Z" fill="#303030"/>
<path d="M64.4649 45.5201C64.0027 45.4901 63.6014 45.8425 63.5716 46.307C63.5039 47.3611 63.3611 48.4175 63.1471 49.4469C63.0525 49.9026 63.3444 50.3489 63.799 50.4439C63.8569 50.4559 63.9145 50.4617 63.9714 50.4617C64.3614 50.4617 64.7113 50.1883 64.794 49.7907C65.024 48.6838 65.1775 47.5482 65.2502 46.4152C65.28 45.9507 64.9285 45.55 64.4649 45.5201Z" fill="#303030"/>
<path d="M64.4595 40.5261C63.9949 40.5261 63.6185 40.9035 63.6185 41.3689V43.0544C63.6185 43.5199 63.9949 43.8972 64.4595 43.8972C64.9241 43.8972 65.3006 43.5199 65.3006 43.0544V41.3689C65.3006 40.9034 64.9241 40.5261 64.4595 40.5261Z" fill="#303030"/>
<path d="M40.1847 46.5925C43.1372 46.5925 45.5393 44.1856 45.5393 41.227C45.5393 38.2684 43.1372 35.8615 40.1847 35.8615C39.9775 35.8615 39.7674 35.8752 39.5571 35.9003C39.1143 35.6807 38.6163 35.5566 38.0896 35.5566C36.2586 35.5566 34.7689 37.0494 34.7689 38.8841C34.7689 39.2827 34.8393 39.6651 34.9681 40.0196C34.8769 40.4156 34.83 40.8204 34.83 41.2269C34.83 44.1856 37.2321 46.5925 40.1847 46.5925ZM43.8572 41.227C43.8572 43.2562 42.2098 44.907 40.1847 44.907C38.3674 44.907 36.8551 43.5773 36.5637 41.8381C37.021 42.0762 37.5397 42.2117 38.0896 42.2117C39.9207 42.2117 41.4103 40.719 41.4103 38.8842C41.4103 38.4625 41.3308 38.0593 41.1874 37.6877C42.7264 38.1262 43.8572 39.5463 43.8572 41.227ZM38.0896 37.2423C38.9932 37.2423 39.7282 37.9789 39.7282 38.8842C39.7282 39.7896 38.9931 40.5262 38.0896 40.5262C37.186 40.5262 36.451 39.7896 36.451 38.8842C36.451 37.9789 37.1861 37.2423 38.0896 37.2423Z" fill="#303030"/>
<path d="M57.8294 49.613C57.622 48.3219 57.0261 47.1241 56.1336 46.1809L58.3271 44.4887C59.042 45.2214 59.5922 46.11 59.9235 47.0802C60.0429 47.4302 60.3696 47.6504 60.7191 47.6504C60.8095 47.6504 60.9014 47.6356 60.9916 47.6047C61.4311 47.4541 61.6655 46.9749 61.515 46.5345C61.1244 45.3908 60.4908 44.3368 59.6687 43.4539L60.8068 42.5759C61.2748 42.2148 61.5493 41.6684 61.56 41.0768C61.5705 40.4851 61.3158 39.9293 60.8612 39.5516C60.2419 39.0373 59.6067 38.5513 58.9575 38.0936C59.6671 37.6024 60.2848 36.9996 60.7902 36.3117L63.9449 38.3486C64.0859 38.4396 64.2437 38.4829 64.3998 38.4829C64.6761 38.4829 64.9468 38.3466 65.1076 38.0966C65.3592 37.7054 65.2466 37.1837 64.8562 36.9317L61.6353 34.8522C61.8256 34.4214 61.9802 33.9718 62.0909 33.5057L62.2641 32.7753C62.3715 32.3224 62.0922 31.8681 61.6404 31.7605C61.1887 31.6527 60.735 31.9327 60.6276 32.3855L60.4543 33.1157C60.3885 33.3933 60.3018 33.663 60.1996 33.925L59.1599 33.2537C58.3191 32.7109 57.4582 32.2094 56.5801 31.7492C56.6537 31.2406 56.6779 30.7232 56.6446 30.2045L56.5979 29.4758C56.568 29.0112 56.1678 28.6587 55.7045 28.6888C55.2409 28.7187 54.8894 29.1194 54.9192 29.584L54.966 30.3127C54.9799 30.5296 54.9808 30.7462 54.9703 30.9617C53.5156 30.2975 52.0207 29.7428 50.4983 29.2988C50.5209 28.822 50.5056 28.3403 50.4457 27.8574L50.3756 27.2936C50.3182 26.8316 49.8973 26.5042 49.4371 26.5614C48.9762 26.6189 48.649 27.0399 48.7063 27.5018L48.7764 28.0655C48.8093 28.3304 48.8252 28.5949 48.8268 28.8581C46.9984 28.427 45.138 28.1527 43.2666 28.0369C43.2562 27.7473 43.2344 27.4577 43.199 27.1693L43.1463 26.7396C43.0897 26.2775 42.6672 25.9494 42.209 26.0059C41.748 26.0627 41.4201 26.4831 41.4767 26.9451L41.5294 27.3747C41.5539 27.5745 41.5697 27.7748 41.5798 27.9753C37.2986 27.9284 32.9941 28.71 28.9195 30.3456L18.2529 34.6276C17.8217 34.8007 17.6121 35.2912 17.7849 35.7233C17.9576 36.1554 18.4476 36.3652 18.8784 36.1922L29.545 31.9102C33.3928 30.3656 37.4564 29.6232 41.4992 29.6595C41.3461 30.7052 41.0018 31.721 40.4794 32.6456C35.3912 32.8545 30.3239 34.3628 25.7851 37.2072L18.1309 42.0032C17.5533 42.3653 17.2298 43.0128 17.2868 43.6931C17.3437 44.3733 17.7703 44.9579 18.4 45.2186L21.4146 46.4662L25.9572 49.238C26.3537 49.4802 26.8713 49.3542 27.113 48.9565C27.3546 48.559 27.2288 48.0405 26.8321 47.7984L24.3281 46.2705L24.131 45.4362C23.7523 43.8334 23.8275 42.1605 24.3485 40.5981L24.5607 39.962L26.6767 38.6359C28.5514 37.4611 30.522 36.5287 32.5477 35.8336C31.4519 37.3899 30.8409 39.2654 30.8409 41.2269C30.8409 46.3895 35.0326 50.5896 40.1848 50.5896C44.7118 50.5896 48.5783 47.3526 49.3783 42.8927C49.4604 42.4345 49.1564 41.9964 48.6993 41.914C48.2416 41.8317 47.8048 42.1363 47.7226 42.5944C47.0667 46.2506 43.8966 48.9041 40.1847 48.9041C35.9599 48.9041 32.523 45.4601 32.523 41.2269C32.523 38.7122 33.7467 36.3693 35.8024 34.9302C38.3845 34.3778 41.0194 34.1925 43.63 34.3707C45.6242 35.3783 47.0749 37.1878 47.6168 39.3566C47.7124 39.7395 48.0552 39.995 48.432 39.995C48.4998 39.995 48.5684 39.9868 48.6369 39.9695C49.0876 39.8564 49.3614 39.3988 49.2486 38.9473C48.8553 37.3732 48.0701 35.954 46.9866 34.8036C51.5858 35.6789 56.0004 37.7031 59.7879 40.8489C59.8683 40.9156 59.8789 41.001 59.8782 41.046C59.8774 41.0909 59.8636 41.176 59.7808 41.2399L52.1805 47.1032C49.0455 49.5218 45.31 51.0256 41.378 51.4522C37.4706 51.8759 33.5273 51.2216 29.9728 49.5599C29.5521 49.3632 29.0516 49.5456 28.855 49.9673C28.6586 50.389 28.8407 50.8905 29.2616 51.0874C32.3365 52.5248 35.6808 53.2632 39.0583 53.2632C39.8909 53.2632 40.7259 53.2184 41.559 53.1279C41.6319 53.12 41.7046 53.111 41.7774 53.1023C41.8856 53.6399 41.8424 54.2026 41.643 54.7163C41.4747 55.15 41.6892 55.6385 42.1221 55.8071C42.2223 55.8461 42.3253 55.8647 42.4267 55.8647C42.7634 55.8647 43.0815 55.6605 43.2108 55.3271C43.5173 54.5371 43.593 53.6737 43.441 52.8445C44.5354 52.6337 45.6106 52.3447 46.659 51.9804C46.8721 52.6123 46.9408 53.2858 46.8543 53.9502C46.7942 54.4117 47.1187 54.8348 47.5794 54.895C47.6163 54.8999 47.653 54.9022 47.6893 54.9022C48.1054 54.9022 48.4669 54.593 48.5222 54.1685C48.6453 53.2235 48.544 52.2645 48.23 51.3691C49.0728 51.0055 49.8944 50.5915 50.6904 50.1291C51.3645 50.861 51.7619 51.8112 51.8093 52.8059C51.8308 53.2571 52.2027 53.6085 52.6487 53.6085C52.6622 53.6085 52.6758 53.6082 52.6894 53.6076C53.1535 53.5854 53.5116 53.1905 53.4895 52.7256C53.4282 51.4396 52.9477 50.2076 52.1301 49.2204C52.4954 48.9705 52.8548 48.7105 53.2065 48.439L54.7911 47.2165C55.5196 47.9322 56.0059 48.8677 56.1688 49.8811C56.2354 50.2953 56.5925 50.5899 56.9982 50.5899C57.0426 50.5899 57.0877 50.5865 57.1329 50.5792C57.5914 50.505 57.9033 50.0725 57.8294 49.613ZM22.3441 45.0599L22.2335 44.9925C22.1964 44.9698 22.1575 44.95 22.1172 44.9334L19.0421 43.6607C19.0242 43.6533 18.9696 43.6307 18.963 43.5524C18.9565 43.4741 19.0065 43.4427 19.0229 43.4325L22.4249 41.3005C22.1731 42.5376 22.1449 43.8101 22.3441 45.0599ZM58.2483 34.6704L59.3735 35.3968C58.8513 36.0823 58.1838 36.6553 57.4067 37.0705C56.5591 36.5479 55.691 36.0711 54.8059 35.6399C55.3757 34.9819 55.8254 34.2294 56.1393 33.4234C56.8553 33.81 57.559 34.2253 58.2483 34.6704ZM54.6301 32.6609C54.3275 33.505 53.8343 34.2784 53.1819 34.9079C51.8483 34.3538 50.4824 33.9004 49.0956 33.5469C49.6242 32.7583 50.0107 31.8908 50.2446 30.9805C51.7397 31.4282 53.206 31.9888 54.6301 32.6609ZM48.6208 30.5415C48.3802 31.4889 47.9322 32.3783 47.2972 33.1468C45.6711 32.8375 44.0233 32.664 42.3709 32.6273C42.7845 31.7036 43.0589 30.7219 43.1879 29.7201C45.0172 29.8348 46.8355 30.1094 48.6208 30.5415Z" fill="#303030"/>
<path d="M68.7322 25.8578C66.2849 22.6792 63.3493 19.9609 60.007 17.7784C56.7489 15.6509 53.1825 14.0815 49.4066 13.1137C45.6308 12.1458 41.7504 11.8065 37.8728 12.1048C33.895 12.411 30.0175 13.383 26.3476 14.9935L13.6325 20.5736C12.9541 20.8714 12.4369 21.4178 12.1762 22.1123C11.9154 22.8067 11.9449 23.5592 12.2592 24.231L13.6982 27.3071C14.1597 28.2936 15.1279 28.8802 16.1558 28.8801C16.4632 28.8801 16.7761 28.8276 17.0822 28.7177L32.3412 23.2395C37.5147 21.3821 43.1423 20.6949 48.6154 21.252C49.0769 21.2992 49.4902 20.9619 49.5372 20.4987C49.5841 20.0356 49.2475 19.6221 48.7854 19.5751C43.0641 18.9926 37.1817 19.7111 31.774 21.6527L16.5149 27.1308C16.0063 27.3134 15.4506 27.0815 15.2214 26.5917L13.7824 23.5156C13.6623 23.2588 13.651 22.9712 13.7507 22.7057C13.8504 22.4403 14.048 22.2314 14.3073 22.1176L27.0225 16.5374C30.519 15.003 34.2129 14.077 38.0017 13.7854C41.6955 13.501 45.3923 13.8244 48.9897 14.7465C52.5872 15.6686 55.9849 17.1638 59.0887 19.1905C61.7606 20.9353 64.1599 23.0398 66.2405 25.4616L61.9962 23.3689C58.9706 21.8772 55.7534 20.7854 52.4342 20.1239C51.9785 20.0333 51.5357 20.3296 51.4453 20.7861C51.3546 21.2426 51.6505 21.6863 52.1062 21.7771C55.2816 22.41 58.3594 23.4543 61.2535 24.8813L67.1546 27.7908C67.6914 28.0555 68.3308 27.9162 68.7094 27.4521C69.0882 26.988 69.0975 26.3324 68.7322 25.8578Z" fill="#303030"/>
<path d="M16.3043 59.5534C15.9801 59.2467 15.4735 59.2467 15.1496 59.5534L13.331 61.2737C12.9933 61.5933 12.978 62.1266 13.2968 62.4652C13.6155 62.8037 14.148 62.8188 14.4858 62.4995L14.8858 62.121V64.9122C14.8858 65.3776 15.2623 65.7549 15.7269 65.7549C16.1915 65.7549 16.5679 65.3776 16.5679 64.9122V62.121L16.9681 62.4996C17.1306 62.6533 17.3381 62.7295 17.5453 62.7295C17.7685 62.7295 17.9915 62.6408 18.157 62.4652C18.4758 62.1267 18.4605 61.5933 18.1227 61.2739L16.3043 59.5534Z" fill="#303030"/>
<path d="M32.5804 55.9883C32.1952 55.7278 31.6725 55.8295 31.4128 56.2152L29.8543 58.5286L29.734 57.9906C29.6326 57.5364 29.1829 57.2506 28.7295 57.3523C28.2761 57.454 27.991 57.9047 28.0925 58.3589L28.6391 60.8043C28.7263 61.1945 29.0719 61.463 29.459 61.463C29.5043 61.463 29.5502 61.4593 29.5963 61.4518L32.0642 61.0453C32.5226 60.9698 32.833 60.5363 32.7578 60.077C32.6826 59.6179 32.2499 59.3064 31.7916 59.382L31.2486 59.4715L32.807 57.1581C33.0668 56.7725 32.9653 56.2486 32.5804 55.9883Z" fill="#303030"/>
<path d="M52.4366 60.8044L52.9833 58.359C53.0847 57.9048 52.7997 57.4541 52.3464 57.3524C51.8926 57.2506 51.4432 57.5364 51.3418 57.9906L51.2215 58.5286L49.663 56.2152C49.4033 55.8295 48.8804 55.7279 48.4954 55.9883C48.1104 56.2486 48.0089 56.7725 48.2689 57.1584L49.8273 59.4717L49.2844 59.3823C48.8263 59.3075 48.3935 59.6179 48.3181 60.0773C48.2428 60.5366 48.5533 60.97 49.0116 61.0455L51.4794 61.452C51.5255 61.4595 51.5714 61.4632 51.6168 61.4632C52.0038 61.4631 52.3494 61.1947 52.4366 60.8044Z" fill="#303030"/>
</svg>
