<svg width="80" height="80" viewBox="0 0 80 80" fill="none" xmlns="http://www.w3.org/2000/svg">
<g clip-path="url(#clip0)">
<path d="M34.778 33.1518C34.4355 32.8364 34.0023 32.6126 33.5489 32.5109L25.3783 30.6595C21.0462 29.6931 16.5025 29.8152 12.2207 30.9952C7.94901 32.1854 4.04001 34.4233 0.90677 37.4547L0.231763 38.116C0.110867 38.238 0.0302688 38.3906 0.0101193 38.5534C-0.0100301 38.7161 0.0302688 38.8891 0.120941 39.0315C0.211614 39.1739 0.35266 39.2858 0.523931 39.3468C0.685126 39.418 0.866471 39.418 1.04782 39.3672L5.49077 38.0346C7.84826 37.3327 10.3065 36.9766 12.7647 36.9766C14.3868 36.9766 15.9987 37.1292 17.5905 37.4446L30.0832 39.886C30.6172 39.9979 31.1813 39.9368 31.6851 39.7334C32.0175 39.591 32.3198 39.3977 32.5717 39.1434L34.8788 36.8241C35.2012 36.4985 35.4329 36.0916 35.5437 35.644C35.6545 35.2066 35.6444 34.7387 35.5135 34.3114C35.3724 33.8537 35.1206 33.457 34.778 33.1518ZM33.9821 35.2677C33.9317 35.4508 33.8411 35.6237 33.7101 35.7559L31.403 38.0854C31.272 38.2177 31.1209 38.3092 30.9395 38.3601C30.8388 38.3906 30.728 38.411 30.6171 38.411C30.5466 38.411 30.4761 38.4008 30.4056 38.3906L17.923 35.9492C13.8125 35.1558 9.51059 35.3185 5.49077 36.4477L5.2389 35.8984C8.09005 33.9452 11.2737 32.6228 14.6991 31.9718C18.1245 31.3207 21.5902 31.3716 24.9955 32.1345L33.1661 33.9859C33.3474 34.0266 33.5187 34.1182 33.6597 34.2402C33.8008 34.3725 33.9015 34.5352 33.962 34.7082C34.0224 34.8913 34.0325 35.0846 33.9821 35.2677Z" fill="#303030"/>
<path d="M63.1989 57.9016C72.2863 57.9016 79.4696 50.9029 79.7617 50.6079C79.9028 50.4655 79.9834 50.2722 79.9834 50.0789C79.9834 49.8856 79.9028 49.6924 79.7617 49.5499C79.4595 49.2549 72.3064 42.2461 63.1989 42.2461C54.1316 42.2461 46.9282 49.2448 46.6259 49.5499C46.4849 49.6924 46.4043 49.8755 46.4043 50.0789C46.4043 50.2722 46.4849 50.4655 46.6259 50.6079C46.9282 50.9029 54.1014 57.9016 63.1989 57.9016ZM70.7952 46.0913L70.3217 45.2572L71.1881 45.6539C73.5658 46.7627 75.7822 48.1665 77.7669 49.845L78.049 50.0789L77.7669 50.3129C75.7822 51.9914 73.5658 53.3952 71.1881 54.504L70.3217 54.9007L70.7952 54.0665C71.4904 52.8458 71.8631 51.4624 71.8631 50.0687C71.8631 48.6853 71.4904 47.312 70.7952 46.0913ZM57.0835 46.6711C57.6981 45.6335 58.5947 44.779 59.6626 44.1789L59.7432 44.1483C62 43.6499 64.3877 43.6499 66.6444 44.1483L66.725 44.1789C67.7929 44.779 68.6896 45.6335 69.3042 46.6711C69.9187 47.7087 70.2512 48.8887 70.2512 50.0789C70.2512 51.2793 69.9187 52.4593 69.3042 53.4969C68.6896 54.5243 67.7929 55.389 66.725 55.9892L66.6444 56.0197C65.5161 56.2638 64.3575 56.3859 63.1989 56.3859C62.0403 56.3859 60.8817 56.2638 59.7533 56.0197L59.6324 55.9688C58.5846 55.3788 57.6981 54.5243 57.0936 53.4969C56.4689 52.4593 56.1466 51.2793 56.1466 50.0789C56.1365 48.8887 56.4589 47.7087 57.0835 46.6711ZM48.6308 49.845C50.6155 48.1665 52.832 46.7627 55.2096 45.6539L56.076 45.2572L55.6025 46.0913C54.9074 47.312 54.5346 48.6955 54.5346 50.0891C54.5346 51.4827 54.9074 52.8662 55.6025 54.0869L56.076 54.921L55.2096 54.5243C52.832 53.4155 50.6155 52.0117 48.6308 50.3332L48.3588 50.0789L48.6308 49.845Z" fill="#303030"/>
<path d="M79.3386 57.1793C79.2882 57.1692 79.2479 57.1692 79.1975 57.1692C79.0364 57.1692 78.8752 57.22 78.7341 57.3116C78.2304 57.6473 77.7065 57.983 77.1927 58.2881C77.0214 58.3899 76.9005 58.5628 76.8602 58.7561C76.8199 58.9494 76.8501 59.1426 76.961 59.3156C77.0718 59.4885 77.2531 59.6106 77.4546 59.6513C77.6561 59.7021 77.8778 59.6716 78.0591 59.5699C78.6031 59.2444 79.1472 58.8985 79.661 58.5526C79.8323 58.4407 79.9531 58.2576 79.9834 58.0643C80.0237 57.8711 79.9733 57.6676 79.8625 57.5049C79.7315 57.3217 79.5502 57.2098 79.3386 57.1793Z" fill="#303030"/>
<path d="M73.5759 60.4142C73.3844 60.3328 73.1628 60.3328 72.9613 60.4142C71.8732 60.872 70.7448 61.2585 69.6165 61.5739C69.415 61.6349 69.2437 61.757 69.1329 61.9401C69.0321 62.113 69.012 62.3165 69.0624 62.5097C69.1228 62.703 69.2538 62.8658 69.4351 62.9675C69.6165 63.0692 69.8482 63.0896 70.0497 63.0387C71.2587 62.703 72.4475 62.2961 73.596 61.818C73.7774 61.7366 73.9285 61.584 74.0091 61.4009C74.0796 61.2178 74.0796 61.0144 73.999 60.8313C73.9285 60.638 73.7773 60.4956 73.5759 60.4142Z" fill="#303030"/>
<path d="M65.5765 62.5708C65.4959 62.4996 65.3952 62.4589 65.2944 62.4283C65.1937 62.3978 65.0828 62.3877 64.972 62.3978H64.9619C63.7933 62.4894 62.6045 62.4894 61.4358 62.3978C61.4156 62.3978 61.3955 62.3978 61.3753 62.3978C61.1839 62.3978 60.9925 62.4589 60.8515 62.5809C60.6903 62.7132 60.5895 62.8963 60.5794 63.0997C60.5593 63.3032 60.6298 63.4965 60.7608 63.649C60.9018 63.8016 61.0932 63.9034 61.3048 63.9237C62.5541 64.0254 63.8134 64.0254 65.0929 63.9237C65.2037 63.9135 65.3146 63.8932 65.4052 63.8423C65.506 63.8016 65.5866 63.7304 65.6571 63.6592C65.7276 63.5778 65.778 63.4965 65.8082 63.3947C65.8384 63.3032 65.8485 63.2015 65.8485 63.0997C65.8384 62.998 65.8082 62.9065 65.7679 62.8149C65.7276 62.7132 65.6571 62.6318 65.5765 62.5708Z" fill="#303030"/>
<path d="M56.7913 61.5739C55.6529 61.2585 54.5245 60.872 53.4465 60.4244C53.3458 60.3837 53.245 60.3633 53.1342 60.3633H53.1241C53.0234 60.3633 52.9226 60.3837 52.8219 60.4142C52.7212 60.4549 52.6305 60.5057 52.56 60.577C52.4894 60.6482 52.429 60.7295 52.3887 60.8211C52.3484 60.9126 52.3282 61.0042 52.3282 61.1059C52.3282 61.2076 52.3484 61.2992 52.3786 61.3908C52.4189 61.4823 52.4693 61.5637 52.5398 61.6349C52.6103 61.7061 52.701 61.7671 52.8017 61.8078C53.9503 62.2859 55.1391 62.703 56.3481 63.0285C56.5495 63.0794 56.7712 63.0489 56.9525 62.9471C57.1339 62.8454 57.2649 62.6827 57.3253 62.4894C57.3757 62.3063 57.3555 62.1028 57.2548 61.9299C57.1641 61.7671 56.9928 61.6349 56.7913 61.5739Z" fill="#303030"/>
<path d="M49.2051 58.278C48.7517 58.0135 48.248 57.688 47.6636 57.3014C47.573 57.2404 47.4823 57.1997 47.3715 57.1793C47.3211 57.1692 47.2606 57.159 47.2002 57.159C47.1498 57.159 47.0995 57.159 47.0491 57.1692C46.9483 57.1895 46.8476 57.22 46.7569 57.2811C46.6662 57.3319 46.5957 57.4031 46.5353 57.4845C46.4144 57.6473 46.3741 57.8507 46.4144 58.044C46.4547 58.2373 46.5655 58.4102 46.7368 58.5323C47.2606 58.8883 47.8047 59.2342 48.3487 59.5495C48.52 59.6513 48.7416 59.6818 48.9431 59.6309C49.1547 59.58 49.326 59.458 49.4368 59.285C49.5476 59.1121 49.5778 58.9188 49.5375 58.7256C49.4972 58.5526 49.3763 58.3899 49.2051 58.278Z" fill="#303030"/>
<path d="M16.7947 42.2563C7.6871 42.2563 0.523968 49.2549 0.231801 49.5499C0.0806799 49.6924 8.20332e-05 49.8856 8.20332e-05 50.0789C8.20332e-05 50.2722 0.0806799 50.4655 0.221726 50.6079C0.523968 50.9029 7.67703 57.9016 16.7947 57.9016C25.8518 57.9016 33.0653 50.9029 33.3676 50.6079C33.5086 50.4655 33.5892 50.2824 33.5892 50.0789C33.5892 49.8856 33.5086 49.6924 33.3676 49.5499C33.0653 49.2549 25.872 42.2563 16.7947 42.2563ZM9.19831 54.0767L9.67182 54.9109L8.8054 54.5141C6.42776 53.4053 4.22139 52.0015 2.2266 50.3231L1.9445 50.0891L2.2266 49.8551C4.21132 48.1767 6.42776 46.7729 8.8054 45.6641L9.67182 45.2673L9.19831 46.0811C8.50316 47.3018 8.13039 48.6853 8.13039 50.0789C8.13039 51.4726 8.50316 52.856 9.19831 54.0767ZM22.8999 53.4969C22.2854 54.5345 21.3887 55.389 20.3107 55.9892L20.2301 56.0197C19.1018 56.2638 17.9432 56.3859 16.7846 56.3859C15.626 56.3859 14.4674 56.2638 13.339 56.0197L13.198 55.9485C12.1502 55.3585 11.2838 54.504 10.6692 53.4867C10.0446 52.4491 9.7222 51.2691 9.7222 50.0789C9.7222 48.8887 10.0446 47.6986 10.6692 46.6711C11.2838 45.6335 12.1804 44.779 13.2484 44.1789L13.3289 44.1483C15.5857 43.6499 17.9734 43.6499 20.2301 44.1483L20.3107 44.1789C21.3787 44.779 22.2753 45.6335 22.8899 46.6711C23.5145 47.7087 23.8369 48.8887 23.8369 50.0891C23.8369 51.2894 23.5246 52.4593 22.8999 53.4969ZM31.3526 50.3129C29.3679 51.9914 27.1515 53.4053 24.7738 54.504L23.9074 54.9007L24.3809 54.0665C25.0761 52.8458 25.4489 51.4624 25.4489 50.0687C25.4489 48.6751 25.0862 47.2917 24.3809 46.071L23.9074 45.2368L24.7738 45.6335C27.1515 46.7423 29.3679 48.1461 31.3526 49.8246L31.6347 50.0586L31.3526 50.3129Z" fill="#303030"/>
<path d="M2.80087 58.278L2.55908 58.1355C2.11579 57.8711 1.68257 57.5862 1.25944 57.3014C1.16876 57.2404 1.07809 57.1997 0.967268 57.1793C0.906819 57.1692 0.856446 57.159 0.795997 57.159C0.745624 57.159 0.69525 57.159 0.644876 57.1692C0.544129 57.1895 0.443382 57.22 0.352709 57.2811C0.262037 57.3319 0.191514 57.4031 0.131065 57.4845C0.0706168 57.5659 0.0303179 57.6574 0.0101685 57.749C9.37227e-05 57.8609 -0.00998101 57.9524 0.0101685 58.0542C0.0303179 58.1559 0.0605421 58.2474 0.12099 58.3288C0.181439 58.4102 0.251962 58.4916 0.33256 58.5424C0.856446 58.8985 1.40048 59.2444 1.94452 59.5699C2.12586 59.6818 2.34751 59.7123 2.55908 59.6614C2.77064 59.6106 2.95199 59.4885 3.05274 59.3156C3.16356 59.1426 3.19378 58.9392 3.15348 58.7459C3.11319 58.5526 2.98221 58.3899 2.80087 58.278Z" fill="#303030"/>
<path d="M18.5477 62.3978C17.379 62.4894 16.1902 62.4894 15.0114 62.3978C14.9812 62.3978 14.951 62.3978 14.9208 62.3978C14.8402 62.3978 14.7596 62.408 14.679 62.4283C14.5782 62.4589 14.4775 62.5097 14.3969 62.5708C14.3163 62.6318 14.2458 62.7132 14.2055 62.8047C14.1551 62.8963 14.1249 62.9878 14.1249 63.0896C14.1249 63.1913 14.1249 63.2828 14.1652 63.3846C14.1954 63.4761 14.2458 63.5677 14.3163 63.6389C14.3868 63.7203 14.4674 63.7813 14.5681 63.822C14.6689 63.8728 14.7696 63.8932 14.8805 63.9034C16.1801 64.0051 17.4294 64.0051 18.6786 63.9034C18.8902 63.883 19.0917 63.7915 19.2227 63.6389C19.3536 63.4863 19.4242 63.293 19.404 63.0896C19.3839 62.8963 19.2831 62.703 19.132 62.5809C18.9809 62.4487 18.7592 62.3877 18.5477 62.3978Z" fill="#303030"/>
<path d="M10.6591 61.7163C10.5785 61.6552 10.4778 61.6044 10.3771 61.5739C9.23861 61.2585 8.11024 60.872 7.02217 60.4142C6.92142 60.3735 6.82067 60.3532 6.70985 60.343C6.69978 60.343 6.69978 60.343 6.6897 60.343C6.58896 60.343 6.48821 60.3633 6.39754 60.3939C6.29679 60.4345 6.20612 60.4854 6.13559 60.5566C6.055 60.6278 6.00462 60.7092 5.95425 60.8007C5.91395 60.8923 5.8938 60.9839 5.8938 61.0856C5.8938 61.1873 5.91395 61.2789 5.95425 61.3704C5.99455 61.462 6.055 61.5433 6.12552 61.6145C6.19604 61.6858 6.28671 61.7468 6.38746 61.7875C7.54606 62.2656 8.73487 62.6827 9.94384 63.0184C10.0446 63.0489 10.1554 63.059 10.2562 63.0387C10.3569 63.0285 10.4677 62.998 10.5584 62.9471C10.6491 62.8963 10.7297 62.8352 10.7901 62.7539C10.8506 62.6725 10.9009 62.5911 10.9312 62.4894C10.9614 62.3978 10.9715 62.2961 10.9513 62.1944C10.9412 62.0927 10.911 62.0011 10.8606 61.9197C10.8002 61.8485 10.7397 61.7773 10.6591 61.7163Z" fill="#303030"/>
<path d="M27.4336 60.577C27.3631 60.5057 27.2724 60.4549 27.1716 60.4142C27.081 60.3735 26.9701 60.3633 26.8694 60.3633H26.8593C26.7485 60.3633 26.6477 60.3837 26.547 60.4244C25.4589 60.872 24.3306 61.2687 23.1921 61.5739C23.0007 61.6349 22.8294 61.7671 22.7287 61.9401C22.6279 62.113 22.6078 62.3165 22.6582 62.4996C22.7186 62.6928 22.8496 62.8556 23.0309 62.9573C23.2123 63.0591 23.4339 63.0896 23.6455 63.0285C24.8444 62.6928 26.0433 62.2859 27.1918 61.8078C27.2925 61.7671 27.3731 61.7061 27.4537 61.6349C27.5242 61.5637 27.5847 61.4823 27.6149 61.3908C27.6552 61.2992 27.6754 61.1975 27.6754 61.1059C27.6754 61.0042 27.6552 60.9126 27.6149 60.8211C27.5645 60.7295 27.5041 60.6482 27.4336 60.577Z" fill="#303030"/>
<path d="M33.4482 57.4947C33.3877 57.4133 33.3172 57.3421 33.2265 57.2912C33.1359 57.2404 33.0351 57.1997 32.9344 57.1793C32.8236 57.159 32.7228 57.159 32.612 57.1793C32.5213 57.1997 32.4407 57.2302 32.3702 57.2709L32.3299 57.3014C31.8262 57.6371 31.3023 57.9728 30.7885 58.278C30.6978 58.3288 30.6172 58.4 30.5567 58.4814C30.4963 58.5628 30.456 58.6544 30.4258 58.7459C30.4056 58.8375 30.3955 58.9392 30.4157 59.0307C30.4358 59.1325 30.4661 59.224 30.5265 59.3054C30.5769 59.3868 30.6474 59.4681 30.7381 59.519C30.8288 59.58 30.9194 59.6207 31.0202 59.6411C31.1209 59.6614 31.2317 59.6716 31.3325 59.6513C31.4332 59.6309 31.534 59.6004 31.6247 59.5495C32.1687 59.224 32.7027 58.8781 33.2366 58.5323C33.3273 58.4712 33.3978 58.4 33.4482 58.3187C33.5086 58.2373 33.5389 58.1457 33.559 58.044C33.5792 57.9423 33.5792 57.8507 33.5489 57.749C33.5489 57.6676 33.5086 57.5761 33.4482 57.4947Z" fill="#303030"/>
<path d="M48.3084 39.7133C48.6409 39.8557 48.9935 39.9167 49.3663 39.9167C49.5476 39.9167 49.729 39.8964 49.9103 39.8659L62.403 37.4245C66.4127 36.6412 70.5937 36.8548 74.5128 38.0246L78.9557 39.3572C79.127 39.4081 79.3185 39.3979 79.4796 39.3369C79.6509 39.2759 79.792 39.164 79.8826 39.0216C79.9733 38.8791 80.0136 38.7062 79.9935 38.5434C79.9733 38.3807 79.8927 38.2179 79.7718 38.106L79.0968 37.4448C75.9636 34.4032 72.0445 32.1653 67.7728 30.9853C63.5011 29.7951 58.9473 29.6832 54.6152 30.6496L52.5751 31.1124L52.9579 32.5874L54.998 32.1246C56.8014 31.7177 58.6552 31.5142 60.4988 31.5142H60.5089C65.637 31.5142 70.5736 33.0299 74.7546 35.8986L74.5027 36.4479C70.4829 35.3289 66.181 35.156 62.0806 35.9495L49.5879 38.3909C49.5174 38.401 49.4469 38.4112 49.3763 38.4112C49.2655 38.4112 49.1547 38.3909 49.0539 38.3603C48.8827 38.3095 48.7215 38.2078 48.5905 38.0857L46.2834 35.7562C46.1524 35.6239 46.0517 35.4612 46.0114 35.2679C45.961 35.0848 45.9711 34.8915 46.0315 34.7084C46.0819 34.5253 46.1927 34.3625 46.3338 34.2303C46.4748 34.1082 46.6461 34.0167 46.8375 33.976L50.9178 33.0503L50.5349 31.5753L46.4547 32.501C45.9912 32.6027 45.5681 32.8265 45.2155 33.1418C44.8729 33.4572 44.6211 33.8539 44.48 34.2812C44.3491 34.7186 44.339 35.1763 44.4498 35.6138C44.5606 36.0512 44.7923 36.4581 45.1147 36.7938L47.4218 39.1233C47.6838 39.3776 47.976 39.581 48.3084 39.7133Z" fill="#303030"/>
</g>
<defs>
<clipPath id="clip0">
<rect width="80" height="80" fill="white"/>
</clipPath>
</defs>
</svg>
